# xmcd
#
# Track frame offsets:
#	150
#	11475
#	25978
#	36459
#	46429
#	55802
#	68474
#	77424
#	89537
#	101249
#
# Disc length: 1462 seconds
#
# Revision: 0
# Processed by: cddbd v1.5.2PL0 Copyright (c) Steve Scherf et al.
# Submitted via: dBpowerAMP V4.0
#
DISCID=7a05b40a
DTITLE=Johnny Horton - Super Hits
DYEAR=2010
DGENRE=Country
TTITLE0=The Battle Of New Orleans
TTITLE1=Sink The Bismarck
TTITLE2=Johnny Reb
TTITLE3=Honky Tonk Man
TTITLE4=I'm Coming Home
TTITLE5=North To Alaska
TTITLE6=I'm A One-Woman Man
TTITLE7=Sleepy-Eyed John
TTITLE8=When It's Springtime In Alaska (It's Forty Below)
TTITLE9=All Grown Up
EXTD=
EXTT0=
EXTT1=
EXTT2=
EXTT3=
EXTT4=
EXTT5=
EXTT6=
EXTT7=
EXTT8=
EXTT9=
PLAYORDER=
